<svg width="211" height="227" viewBox="0 0 211 227" fill="none" xmlns="http://www.w3.org/2000/svg">
    <path d="M206 113.5C206 173.773 160.667 222 105.5 222C50.3333 222 5 173.773 5 113.5C5 53.2266 50.3333 5 105.5 5C160.667 5 206 53.2266 206 113.5Z" fill="#F39E0E"/>
    <path d="M206 113.5C206 173.773 160.667 222 105.5 222C50.3333 222 5 173.773 5 113.5C5 53.2266 50.3333 5 105.5 5C160.667 5 206 53.2266 206 113.5Z" stroke="#1A2B45" stroke-width="10"/>
    <path d="M206 113.5C206 173.773 160.667 222 105.5 222C50.3333 222 5 173.773 5 113.5C5 53.2266 50.3333 5 105.5 5C160.667 5 206 53.2266 206 113.5Z" stroke="black" stroke-opacity="0.2" stroke-width="10"/>
    <path d="M206 113.5C206 174.373 165.514 222 117.5 222C69.4858 222 29 174.373 29 113.5C29 52.6267 69.4858 5 117.5 5C165.514 5 206 52.6267 206 113.5Z" fill="#FEC749" stroke="#1A2B45" stroke-width="10"/>
    <ellipse cx="117.5" cy="113.5" rx="70.5" ry="88.5" fill="#F7A00B"/>
    <ellipse cx="114.5" cy="113" rx="63.5" ry="79" fill="#FFC74C"/>
    <path d="M96 77L96 93" stroke="#1C2E46" stroke-width="13" stroke-linecap="round" stroke-linejoin="round"/>
    <path d="M141 77L141 93" stroke="#1C2E46" stroke-width="13" stroke-linecap="round" stroke-linejoin="round"/>
    <path d="M96 121V160.5C96 160.5 115.5 152 126.5 145C137.5 138 144.5 128.5 144.5 128.5C144.5 128.5 130.5 134.5 120 133C109.5 131.5 96 121 96 121Z" fill="#1A2B45" stroke="#1C2E46" stroke-width="10" stroke-linejoin="round"/>
</svg>