<svg width="203" height="58" viewBox="0 0 203 58" fill="none" xmlns="http://www.w3.org/2000/svg">
    <path d="M33.8352 23.3125H26.3693C26.233 22.3466 25.9545 21.4886 25.5341 20.7386C25.1136 19.9773 24.5739 19.3295 23.9148 18.7955C23.2557 18.2614 22.4943 17.8523 21.6307 17.5682C20.7784 17.2841 19.8523 17.142 18.8523 17.142C17.0455 17.142 15.4716 17.5909 14.1307 18.4886C12.7898 19.375 11.75 20.6705 11.0114 22.375C10.2727 24.0682 9.90341 26.125 9.90341 28.5455C9.90341 31.0341 10.2727 33.125 11.0114 34.8182C11.7614 36.5114 12.8068 37.7898 14.1477 38.6534C15.4886 39.517 17.0398 39.9489 18.8011 39.9489C19.7898 39.9489 20.7045 39.8182 21.5455 39.5568C22.3977 39.2955 23.1534 38.9148 23.8125 38.4148C24.4716 37.9034 25.017 37.2841 25.4489 36.5568C25.892 35.8295 26.1989 35 26.3693 34.0682L33.8352 34.1023C33.642 35.7045 33.1591 37.25 32.3864 38.7386C31.625 40.2159 30.5966 41.5398 29.3011 42.7102C28.017 43.8693 26.483 44.7898 24.6989 45.4716C22.9261 46.142 20.9205 46.4773 18.6818 46.4773C15.5682 46.4773 12.7841 45.7727 10.3295 44.3636C7.88636 42.9545 5.95455 40.9148 4.53409 38.2443C3.125 35.5739 2.42045 32.3409 2.42045 28.5455C2.42045 24.7386 3.13636 21.5 4.56818 18.8295C6 16.1591 7.94318 14.125 10.3977 12.7273C12.8523 11.3182 15.6136 10.6136 18.6818 10.6136C20.7045 10.6136 22.5795 10.8977 24.3068 11.4659C26.0455 12.0341 27.5852 12.8636 28.9261 13.9545C30.267 15.0341 31.358 16.358 32.1989 17.9261C33.0511 19.4943 33.5966 21.2898 33.8352 23.3125ZM71.2074 28.5455C71.2074 32.3523 70.4858 35.5909 69.0426 38.2614C67.6108 40.9318 65.6563 42.9716 63.179 44.3807C60.7131 45.7784 57.9403 46.4773 54.8608 46.4773C51.7585 46.4773 48.9744 45.7727 46.5085 44.3636C44.0426 42.9545 42.0938 40.9148 40.6619 38.2443C39.2301 35.5739 38.5142 32.3409 38.5142 28.5455C38.5142 24.7386 39.2301 21.5 40.6619 18.8295C42.0938 16.1591 44.0426 14.125 46.5085 12.7273C48.9744 11.3182 51.7585 10.6136 54.8608 10.6136C57.9403 10.6136 60.7131 11.3182 63.179 12.7273C65.6563 14.125 67.6108 16.1591 69.0426 18.8295C70.4858 21.5 71.2074 24.7386 71.2074 28.5455ZM63.7244 28.5455C63.7244 26.0795 63.3551 24 62.6165 22.3068C61.8892 20.6136 60.8608 19.3295 59.5312 18.4545C58.2017 17.5795 56.6449 17.142 54.8608 17.142C53.0767 17.142 51.5199 17.5795 50.1903 18.4545C48.8608 19.3295 47.8267 20.6136 47.0881 22.3068C46.3608 24 45.9972 26.0795 45.9972 28.5455C45.9972 31.0114 46.3608 33.0909 47.0881 34.7841C47.8267 36.4773 48.8608 37.7614 50.1903 38.6364C51.5199 39.5114 53.0767 39.9489 54.8608 39.9489C56.6449 39.9489 58.2017 39.5114 59.5312 38.6364C60.8608 37.7614 61.8892 36.4773 62.6165 34.7841C63.3551 33.0909 63.7244 31.0114 63.7244 28.5455ZM105.874 11.0909V46H99.4986L84.3111 24.0284H84.0554V46H76.6747V11.0909H83.152L98.2202 33.0455H98.527V11.0909H105.874ZM144.051 28.5455C144.051 32.3523 143.33 35.5909 141.886 38.2614C140.455 40.9318 138.5 42.9716 136.023 44.3807C133.557 45.7784 130.784 46.4773 127.705 46.4773C124.602 46.4773 121.818 45.7727 119.352 44.3636C116.886 42.9545 114.938 40.9148 113.506 38.2443C112.074 35.5739 111.358 32.3409 111.358 28.5455C111.358 24.7386 112.074 21.5 113.506 18.8295C114.938 16.1591 116.886 14.125 119.352 12.7273C121.818 11.3182 124.602 10.6136 127.705 10.6136C130.784 10.6136 133.557 11.3182 136.023 12.7273C138.5 14.125 140.455 16.1591 141.886 18.8295C143.33 21.5 144.051 24.7386 144.051 28.5455ZM136.568 28.5455C136.568 26.0795 136.199 24 135.46 22.3068C134.733 20.6136 133.705 19.3295 132.375 18.4545C131.045 17.5795 129.489 17.142 127.705 17.142C125.92 17.142 124.364 17.5795 123.034 18.4545C121.705 19.3295 120.67 20.6136 119.932 22.3068C119.205 24 118.841 26.0795 118.841 28.5455C118.841 31.0114 119.205 33.0909 119.932 34.7841C120.67 36.4773 121.705 37.7614 123.034 38.6364C124.364 39.5114 125.92 39.9489 127.705 39.9489C129.489 39.9489 131.045 39.5114 132.375 38.6364C133.705 37.7614 134.733 36.4773 135.46 34.7841C136.199 33.0909 136.568 31.0114 136.568 28.5455Z" fill="#2C3E50"/>
    <path opacity="0.9" d="M195 26C199.418 26 203 22.4183 203 18C203 13.5817 199.418 10 195 10C190.582 10 187 13.5817 187 18C187 22.4183 190.582 26 195 26Z" fill="#2C3E50"/>
    <path opacity="0.6" d="M155 38C168.333 31.3333 181.667 31.3333 195 38" stroke="#2C3E50" stroke-width="2"/>
</svg>